<svg width="145" height="31" viewBox="0 0 145 31" fill="none" xmlns="http://www.w3.org/2000/svg">
<path d="M0.611694 28.9248C1.38662 28.2576 1.78768 30.0411 1.02283 30.5723C1.02377 30.5726 1.02486 30.5739 1.02576 30.5742C0.993559 30.5943 0.708574 30.4597 0.485718 30.2744C0.393208 30.1707 0.212873 30.1143 0.139038 30.0273C0.0602132 29.943 0.0256586 29.8636 0.0111084 29.8408C-0.0330636 29.7815 0.0683623 29.6678 0.0736084 29.6338C0.0920799 29.5922 0.124643 29.5652 0.168335 29.5488C0.247118 29.5214 0.420608 29.507 0.512085 29.5498C0.726879 29.617 0.979522 29.7055 1.12732 29.4561C1.25501 29.2013 0.458174 29.0535 0.611694 28.9248ZM133.656 0.286133C135.471 -0.48634 137.57 0.35918 138.342 2.1748L143.771 14.9336C144.635 16.9663 143.688 19.3149 141.656 20.1797L128.898 25.6084C127.082 26.3809 124.984 25.5352 124.211 23.7197C123.439 21.9039 124.284 19.8048 126.1 19.0322L130.639 17.1006C130.626 17.096 130.612 17.0926 130.599 17.0879C130.445 17.0322 130.641 16.6734 130.631 16.6416C130.558 16.4282 130.08 16.1751 130.03 16.1367C129.753 15.926 129.576 16.7635 129.457 16.7793C128.221 16.9361 127.228 16.527 126.113 16.2373C125.931 16.1902 126.217 15.7641 126.123 15.7402C123.796 15.1726 121.48 14.9138 119.199 14.2119C119.255 13.9459 119.325 13.6547 119.368 13.4033C119.177 13.1783 118.866 14.0438 118.747 14.0576C116.99 14.2363 115.463 13.8038 113.901 13.4102C113.67 13.353 114.037 12.9734 113.865 12.9033C113.459 12.7409 113.008 12.6737 112.562 12.7217C112.376 12.7435 112.526 13.1619 112.34 13.1914C111.957 13.2522 111.505 13.1799 111.164 13.0391C110.998 12.9717 111.245 12.5739 111.139 12.541C109.835 12.1276 108.531 12.0463 107.221 11.6748C107.124 11.6433 107.33 11.2118 107.214 11.1836C105.378 10.737 103.795 10.7818 101.808 10.6025C100.293 10.4679 98.2964 10.3512 96.7504 9.83301C96.4329 9.72787 96.2441 10.0128 95.9232 9.63184C95.853 9.5479 95.6071 8.74462 95.2885 9.2627C95.2426 9.33678 95.2985 9.69686 95.1254 9.72168C94.203 9.84531 93.2524 9.76382 92.3529 9.57324C92.2013 9.54225 92.448 9.11756 92.2806 9.07617C91.8196 8.96871 91.3062 8.87604 90.8197 9.04102C90.647 9.1002 90.7596 9.81841 90.5394 9.45117C90.5183 9.41366 90.6514 9.03457 90.5287 8.99316C90.083 8.84032 89.6635 9.18133 89.1986 8.84473C89.1243 8.78882 89.0655 7.95815 88.7631 8.53809C88.7453 8.57573 88.8498 8.92929 88.641 8.95703C88.0722 9.02962 87.3568 9.06784 86.7963 8.91309C86.5932 8.85676 86.8356 8.46149 86.6996 8.41504C86.1894 8.2442 85.6553 8.24242 85.1605 8.07324C85.0214 8.02293 85.1431 7.63561 85.1224 7.6123C84.9572 7.48421 84.7041 8.19815 84.6117 8.37012C84.2659 9.01859 83.7342 7.94022 83.6791 7.80566C83.3668 7.00943 83.3922 7.90942 83.3207 8.0127C82.9799 8.50692 83.0199 7.76297 82.8812 7.66016C82.413 7.32008 81.875 7.59336 81.4476 7.59668C81.1865 7.59979 81.3767 8.01225 81.3461 8.04199C80.988 8.33168 80.6718 8.45573 80.3207 8.49902C80.1744 8.51825 80.2148 8.19345 80.057 8.1709C79.7031 8.12364 79.3147 8.30215 78.9427 8.21875C78.8353 8.19387 78.9704 7.77256 78.8431 7.73926C78.222 7.58154 77.7379 8.03985 77.059 7.69824C76.9894 7.66376 76.6805 6.60844 76.3851 6.71582C75.7747 6.94217 76.7779 7.36001 75.9867 7.91504C75.0055 8.6054 73.078 8.35166 71.9662 8.39453C71.6684 8.4046 71.8167 8.07315 71.6156 8.0957C70.6929 8.20321 69.7847 8.53207 68.9037 8.69141C68.4687 8.76982 68.0248 8.80975 67.5629 8.7627C67.2398 8.72995 67.355 7.80036 67.1088 7.56934C66.8613 7.33902 66.4634 7.54119 66.2787 7.72168C66.0963 7.90235 66.2781 8.45079 66.099 8.56348C65.5957 8.88313 64.998 8.73891 64.4886 9.0166C64.3821 9.07497 64.5049 9.41131 64.4857 9.50098C64.3643 10.0726 63.9745 9.41421 63.8959 9.34375C63.4544 8.9454 63.1234 9.29292 62.7894 9.12695C62.5714 9.01925 62.6576 8.7632 62.5658 8.67383C62.0811 8.21701 62.3108 9.24563 62.3148 9.41309C62.3346 10.4241 61.5602 9.10694 61.5277 9.06836C61.0775 8.5102 60.9825 9.34857 60.9095 9.51074C60.671 10.0258 60.2223 9.84251 59.9867 9.93848C59.7531 10.0338 59.8007 9.6027 59.7816 9.56836C59.4614 9.07847 59.412 9.90919 59.4086 9.9668C59.3584 10.7819 58.6431 10.0158 58.5668 10.0078C57.2631 9.94161 56.5392 10.9254 55.2426 10.8506C55.1891 10.8477 54.6608 10.1066 54.6029 10.7324C54.5946 10.836 54.7807 11.1234 54.6361 11.2207C54.0473 11.6104 53.3193 11.836 52.64 11.9785C52.4959 12.008 52.4886 11.5241 52.39 11.5498C51.664 11.7335 50.9584 12.128 50.2836 12.3984C50.1396 12.4558 50.0556 12.1771 50.0316 12.1719C49.7552 12.1383 49.9858 12.5653 49.7269 12.5439C49.528 12.5253 48.8396 11.3502 48.7201 11.3174C48.2099 11.185 48.1537 11.5398 48.0941 12.1914C48.0778 12.371 48.5235 13.1974 48.0541 12.875C48.0363 12.8577 47.9592 12.4943 47.9144 12.4902C47.5796 12.4665 47.4492 12.7195 47.1058 12.7559C46.6718 12.8029 45.8917 12.9377 45.5306 13.1025C44.7701 13.4462 44.4979 14.0588 43.5629 13.8223C43.531 13.8094 43.2073 13.0309 43.0004 13.3174C42.7927 13.6061 42.4283 14.0913 42.0638 14.125C42.0618 14.9245 41.7537 15.151 41.2035 15.0186C40.6534 14.8861 40.1209 14.517 39.6576 14.9014C39.6259 14.9309 39.8047 15.3273 39.7914 15.3408C38.9407 15.8618 38.0011 16.122 36.9691 16.1572C36.9257 16.1584 36.8215 15.7818 36.7328 15.7695C36.5691 15.7497 35.9294 16.1067 35.9154 16.2178C35.9059 16.2068 35.5839 15.5424 35.6439 15.9893C35.545 16.2545 35.9064 16.2135 35.9154 16.2178C35.8945 16.389 35.69 17.5229 35.1595 17.1523C34.8852 16.9613 34.8142 16.5449 34.3861 16.6201C33.7255 16.7344 33.1046 17.6428 32.4281 18.0127C32.0399 18.226 31.2543 18.3144 30.8685 18.4844C30.0766 18.8335 29.4963 19.3744 28.7133 19.668C28.6104 19.7068 28.5152 19.3006 28.4799 19.2988C28.0936 19.3047 27.9288 19.7013 27.5648 19.7471C27.4276 19.7645 27.44 19.3272 27.2455 19.3721C26.7024 19.4994 26.3557 20.391 25.6967 20.2002C25.4078 20.1162 25.2004 19.4221 24.9291 19.4502C24.3312 19.513 24.7104 19.9147 24.7279 20.4004C24.7574 21.44 24.3699 21.4743 23.7494 20.6328C23.7731 20.5695 23.9824 20.5793 23.9525 20.4814C23.673 19.5864 23.3417 19.6706 23.7494 20.6328C23.5553 20.782 23.2282 20.8129 23.6283 21.332C23.6619 21.3757 23.8937 20.9237 23.9183 21.5166C23.9281 21.7468 23.8523 22.5901 23.4535 22.3789C23.0543 22.167 22.5908 21.2094 22.3011 21.71C22.2852 21.7393 22.445 22.0378 22.4427 22.1113C22.4218 22.6671 21.8656 22.2236 21.7094 22.1992C21.1762 22.1196 21.0437 22.4541 20.764 22.7412C20.6113 22.8984 21.1913 23.4771 20.7162 23.2432C20.6413 23.2067 19.8659 22.4489 19.8334 22.4561C19.2799 22.6697 20.0744 24.4224 19.3793 24.126C19.217 24.0549 19.0232 23.206 18.7797 23.668C18.7161 23.7921 18.8369 24.0184 18.7103 24.1143C18.3487 24.3881 17.6612 24.3631 17.849 25.3428C17.4179 25.4209 16.814 25.1865 16.4164 25.2715C15.9077 25.3819 15.6637 25.8644 15.181 26.0273C15.0676 26.0644 14.9646 25.6113 14.8636 25.6543C14.0546 26.0207 13.4145 26.6524 12.6351 27.0869C12.227 26.3463 11.8019 25.5939 11.4037 24.8535C11.1998 25.3347 11.8251 25.8972 11.9271 26.4268C12.029 26.9525 11.4815 26.4526 11.4642 26.9395C11.4517 27.112 11.5159 27.7571 11.3832 27.9014C11.1618 28.1404 10.7945 28.1244 10.5072 28.1357C10.2193 28.1484 10.2065 28.4452 9.90955 28.4033C9.86298 28.3945 9.71449 28.1111 9.65955 28.0674C9.22294 27.7278 9.25496 28.6087 9.2533 28.6758C9.21222 29.6855 8.81846 28.639 8.57068 28.4736C7.43563 27.6865 7.84492 29.0744 7.28455 29.4932C7.11582 29.6167 6.61035 28.7379 6.30994 28.7266C5.83618 28.7143 5.54073 29.1231 4.96912 29.0586C4.85066 29.0394 3.97603 28.3265 4.22205 29.2393C4.24717 29.3227 4.9452 30.7072 4.41736 30.4756C4.34813 30.4466 3.60154 29.75 3.5238 29.7275C3.17056 29.6526 3.08785 30.0692 2.86365 30.0215C2.63932 29.9726 2.18111 29.0391 2.20251 28.9863C2.49383 28.3228 3.6594 30.4257 2.84509 28.3691C3.44274 29.007 3.57579 28.4165 4.01306 28.2988C4.04431 28.2937 4.12315 28.7339 4.30701 28.6289C4.72672 28.3813 5.30059 28.1268 5.64783 27.6719C5.79281 27.4643 5.42616 27.3974 5.50818 27.1406C5.59244 26.8824 5.89608 27.1895 5.90466 26.6455C5.90539 26.5022 5.92743 25.6768 6.37732 25.9688C6.42949 26.0023 6.58167 26.282 6.63513 26.3037C6.86196 26.3885 6.84333 26.094 7.05603 26.1699C7.1068 26.1874 7.18712 26.5126 7.27771 26.5195C7.74918 26.5476 7.95003 26.4199 8.3988 27.2393C8.64649 26.9825 8.4376 26.0209 8.59314 25.7461C8.77731 25.3973 9.13755 25.7304 9.34705 25.5996C9.55757 25.4672 9.33105 25.1893 9.50916 25.0771C9.98434 24.7779 10.5924 24.7893 11.0414 24.4424C11.1506 24.3596 11.0883 24.0105 11.2513 23.9082C11.362 23.8402 11.8507 24.4078 11.9105 24.4023C13.2217 24.2679 13.9118 23.1433 15.14 22.9053C15.0931 21.4183 16.6539 23.5583 17.0551 23.5791C18.0541 23.6329 16.7905 21.963 16.9095 21.3535C17.0145 20.7994 17.7221 21.0898 17.8695 20.9854C18.6813 20.4115 19.0859 19.8024 20.0033 19.626C20.0286 19.6286 20.1307 20.0386 20.2523 19.9834C20.5075 19.867 20.7945 19.5755 21.0336 19.4434C21.1842 19.3607 21.5798 19.9125 21.6049 19.9238C22.2921 20.1521 22.4189 19.4965 22.2865 18.7607C22.154 18.0247 22.5927 18.7584 22.5599 18.3018C22.549 18.1587 22.4135 17.9556 22.4144 17.875C22.4279 17.2803 23.0127 17.7624 23.1703 17.7939C23.8224 17.9232 24.2753 17.2207 24.6146 17.0342C24.9486 16.8503 24.5521 16.6135 24.5433 16.5674C24.4885 15.9183 24.877 16.6621 24.9135 16.6729C25.9086 16.8847 26.287 16.0405 27.1898 15.9805C27.2747 15.9779 27.7467 16.6579 27.722 16.0195C27.7198 15.9775 27.5069 15.6883 27.6019 15.6035C27.8786 15.3559 28.2626 15.2408 28.5853 15.0635C29.1138 15.7452 29.706 15.7918 29.2162 14.6826C29.6993 14.392 30.3292 13.6223 30.8168 13.4951C31.4368 13.3341 31.7887 14.0071 32.265 13.6387C32.3359 13.5803 32.1114 13.2512 32.1273 13.2246C32.5529 12.6986 32.6504 13.5359 33.0619 14.1494C33.1872 14.337 33.2898 13.9459 33.39 14.0127C33.7228 14.2347 33.8469 14.6924 34.1644 14.5586C34.6947 14.3352 34.6582 13.6379 34.1674 12.6729C34.8559 13.2688 34.8774 14.0455 35.474 13.5078C35.5297 13.455 35.2686 13.0977 35.3695 13.0166C36.1133 12.4337 36.9945 12.0668 37.7338 11.4609C37.826 11.3826 37.5963 11.0556 37.6185 11.0303C38.0129 10.6003 38.0512 11.3774 38.4408 11.9824C38.6254 12.2677 39.327 12.6049 39.4867 12.4746C39.6455 12.3441 39.4002 12.2054 39.4164 12.0127C39.4331 11.8201 39.6176 12.0998 39.5687 11.7793C39.5212 11.4574 38.7812 10.1551 39.3285 10.2432C39.8743 10.333 39.8193 10.995 40.4691 10.5381C40.8293 10.2859 41.0703 10.2569 41.7347 9.94629C42.3987 9.63394 43.7988 8.46641 44.8246 8.64355C45.0955 8.69004 45.1337 9.53276 45.3177 9.79785C45.6185 9.70202 45.232 9.31972 45.2269 8.97461C45.2221 8.62717 45.5702 9.12563 45.5609 8.60645C45.558 8.4637 45.5074 7.78999 45.8939 8.19727C45.9185 8.22727 45.9428 8.57086 46.1088 8.56445C46.4532 8.54961 46.5891 8.34089 46.8148 9.17773C47.0069 8.71428 46.3007 7.75235 46.8051 7.77539C46.8273 7.7802 46.873 8.20923 47.0082 8.18359C48.7383 7.85756 50.1284 6.7134 51.8822 6.25977C51.9168 6.24918 52.3616 6.32486 52.5033 6.44727C52.527 6.46988 52.5268 6.88923 52.7318 6.84277C52.9377 6.79553 53.4723 6.66066 53.6508 6.49512C53.8303 6.3288 53.5421 6.08439 53.6342 5.98242C53.8419 5.75425 53.754 6.33112 53.974 6.35449C54.2701 6.38591 54.7087 6.19509 54.9349 6.02344C55.086 5.90859 54.9095 5.62002 54.9222 5.53125C55.0167 4.91544 55.5798 5.5767 55.6683 5.61719C56.2126 5.86202 56.3529 5.40922 56.7758 5.41406C56.8823 5.41689 56.8612 5.72581 56.9652 5.66504C57.3446 5.4412 57.4154 4.08969 58.0267 4.62402C58.2841 4.85161 58.2678 6.28685 58.7367 5.63867C58.8074 5.53967 58.6302 5.33389 58.6986 5.17188C58.767 5.00946 59.0868 4.51796 59.2426 4.68359C59.3983 4.85167 59.6945 6.5777 59.8129 5.80078C59.9343 5.02039 59.6756 4.86289 60.1351 4.25684C60.1434 4.23318 59.9271 3.89984 60.1205 3.78223C60.3168 3.66302 61.0746 3.5305 61.2396 3.47559C61.6545 3.33905 61.7921 4.49944 61.8597 4.56641C62.3865 5.05944 62.2985 4.05782 62.5209 3.70996C62.6185 3.56035 62.7652 3.68683 62.8715 3.54785C62.9047 3.50245 62.775 3.14082 62.7894 3.13477C63.2753 3.05039 63.5651 5.09025 63.849 4.64355C63.8822 4.58484 63.6476 3.99401 63.7318 3.7168C63.7545 3.64007 63.9984 2.62756 64.1625 2.80371C64.8077 3.50805 64.7548 4.17353 65.4916 3.82715C65.5522 3.79788 65.4355 3.39199 65.4662 3.37695C66.3732 2.90742 67.3243 2.65425 68.2689 2.50391C69.8913 2.24614 71.5634 2.28157 73.2152 2.00098C73.6799 2.99748 74.2201 2.26843 74.8441 2.48828C74.9236 2.52173 75.093 3.36518 75.3295 2.72852C75.3439 2.68725 75.1694 2.36073 75.4086 2.30371C76.9622 1.93495 78.6164 1.83664 80.1703 2.01172C80.4025 2.03771 80.2014 2.46917 80.2826 2.48926C80.9678 2.63903 81.468 1.77576 82.181 2.06738C82.2383 2.09007 82.3827 2.94368 82.6342 2.36035C82.6503 2.3231 82.6264 1.9739 82.7054 1.94434C83.0811 1.8003 83.1211 2.56786 83.5131 2.4043C83.6023 2.36608 83.4611 1.95255 83.6449 1.91504C84.4753 1.75537 85.3511 1.7763 86.1752 1.91113C86.3343 1.93841 86.1003 2.39668 86.266 2.4082C86.9837 2.45573 87.5313 2.68596 88.3441 2.29883C88.4507 2.24519 88.9979 1.44263 89.226 1.9834C89.2527 2.05016 89.1858 2.39896 89.2982 2.45312C89.8514 2.7142 90.4987 2.65538 91.0629 2.86426C91.1959 2.91427 91.034 3.29281 91.1205 3.3457C91.503 3.5822 91.2342 3.09769 91.5912 2.90332C92.1456 2.60158 92.8523 2.61376 93.4349 2.61621C93.713 4.46655 95.1429 3.82986 96.0345 3.6123C96.1796 3.57461 96.0602 3.13961 96.2025 3.12695C97.6225 3.0051 99.0074 3.1626 100.376 3.43848C100.505 3.46532 100.306 3.91009 100.411 3.93066C101.414 4.1306 102.316 4.06207 103.358 4.21582C104.234 4.34662 105.168 4.67651 106.079 4.84863C107.284 5.07486 108.449 4.81014 109.663 5.41699C109.731 5.45438 110.103 6.38753 110.452 5.83789C110.494 5.77244 110.49 5.45044 110.665 5.38965C110.843 5.3293 111.309 5.38955 111.477 5.49414C111.641 5.59807 111.412 5.95954 111.519 6.00293C112.024 6.19858 112.639 6.13117 113.12 6.22461C113.472 6.29548 113.533 6.31251 113.914 6.33203C114.116 6.34418 114.581 6.51685 114.851 6.48047C114.97 6.46384 114.953 6.06158 114.987 6.03906C115.481 5.72771 114.92 6.35171 115.308 6.50098C116.21 6.84686 117.318 7.06447 118.378 6.91113C118.645 6.87185 118.691 6.11916 118.957 6.65918C118.973 6.69573 118.817 7.03509 118.936 7.08398C120.003 7.50542 121.316 7.43008 122.411 7.63574C125.627 8.2331 128.757 8.89307 131.959 9.33105C132.628 9.42962 133.126 9.66562 133.775 9.69238L131.767 4.97266C130.994 3.15691 131.84 1.05878 133.656 0.286133ZM7.00525 27.749C6.98348 27.356 6.48626 27.2467 6.5072 27.5605C6.53265 27.9519 7.02137 28.0651 7.00525 27.749ZM10.5912 27.3145C11.1879 27.4856 10.1491 25.6371 10.016 26.293C10.0091 26.3323 10.5558 27.3028 10.5912 27.3145ZM14.225 25.5918C14.2193 25.0239 13.5612 24.2692 13.5443 25.0166C13.5402 25.244 14.2312 26.1568 14.225 25.5918ZM28.5863 15.0625C28.5229 14.4365 28.8101 14.3729 29.2201 14.7158C29.0108 14.8379 28.7921 14.9385 28.5863 15.0625ZM44.2025 12.707C44.5979 12.947 44.0646 11.5508 43.9427 12.0254C43.9362 12.0488 44.18 12.6856 44.2025 12.707ZM43.7074 10.1846C43.6944 10.1688 43.4944 10.2585 43.4945 10.2793C43.5704 10.7758 43.9765 10.5927 43.7074 10.1846ZM57.3011 6.42188C57.2746 6.29867 57.1262 6.35523 57.1273 6.37793C57.147 6.7582 57.3857 6.81761 57.3011 6.42188ZM66.6586 3.58398C66.6351 3.54786 66.1263 3.65434 66.1185 3.69824C66.002 4.53595 67.0235 4.31857 66.6586 3.58398Z" fill="#2D96BC"/>
</svg>
